<?xml version="1.0" encoding="UTF-8" standalone="no"?>
<!-- Created with Inkscape (http://www.inkscape.org/) -->

<svg
   width="210mm"
   height="297mm"
   viewBox="0 0 210 297"
   version="1.1"
   id="svg1"
   xml:space="preserve"
   inkscape:version="1.3.2 (091e20e, 2023-11-25, custom)"
   sodipodi:docname="lichaser.svg"
   xmlns:inkscape="http://www.inkscape.org/namespaces/inkscape"
   xmlns:sodipodi="http://sodipodi.sourceforge.net/DTD/sodipodi-0.dtd"
   xmlns:xlink="http://www.w3.org/1999/xlink"
   xmlns="http://www.w3.org/2000/svg"
   xmlns:svg="http://www.w3.org/2000/svg"><sodipodi:namedview
     id="namedview1"
     pagecolor="#ffffff"
     bordercolor="#000000"
     borderopacity="0.25"
     inkscape:showpageshadow="2"
     inkscape:pageopacity="0.0"
     inkscape:pagecheckerboard="0"
     inkscape:deskcolor="#d1d1d1"
     inkscape:document-units="mm"
     inkscape:zoom="1.5554293"
     inkscape:cx="311.16811"
     inkscape:cy="266.48591"
     inkscape:window-width="1920"
     inkscape:window-height="1111"
     inkscape:window-x="-9"
     inkscape:window-y="-9"
     inkscape:window-maximized="1"
     inkscape:current-layer="layer1" /><defs
     id="defs1"><linearGradient
       id="linearGradient150"
       inkscape:collect="always"><stop
         style="stop-color:#007e07;stop-opacity:1;"
         offset="0"
         id="stop150" /><stop
         style="stop-color:#46ff4f;stop-opacity:1;"
         offset="0.61648178"
         id="stop151" /></linearGradient><filter
       style="color-interpolation-filters:sRGB;"
       inkscape:label="Drop Shadow"
       id="filter85"
       x="-0.15666002"
       y="-0.094645154"
       width="1.3353523"
       height="1.2010089"><feFlood
         result="flood"
         in="SourceGraphic"
         flood-opacity="1.000000"
         flood-color="rgb(0,0,0)"
         id="feFlood84" /><feGaussianBlur
         result="blur"
         in="SourceGraphic"
         stdDeviation="0.800000"
         id="feGaussianBlur84" /><feOffset
         result="offset"
         in="blur"
         dx="0.300000"
         dy="0.300000"
         id="feOffset84" /><feComposite
         result="comp1"
         operator="in"
         in="flood"
         in2="offset"
         id="feComposite84" /><feComposite
         result="comp2"
         operator="over"
         in="SourceGraphic"
         in2="comp1"
         id="feComposite85" /></filter><filter
       style="color-interpolation-filters:sRGB;"
       inkscape:label="Drop Shadow"
       id="filter87"
       x="-0.50278738"
       y="-0.40094623"
       width="2.0794058"
       height="1.8624372"><feFlood
         result="flood"
         in="SourceGraphic"
         flood-opacity="1.000000"
         flood-color="rgb(0,0,0)"
         id="feFlood85" /><feGaussianBlur
         result="blur"
         in="SourceGraphic"
         stdDeviation="0.800000"
         id="feGaussianBlur85" /><feOffset
         result="offset"
         in="blur"
         dx="0.300000"
         dy="0.300000"
         id="feOffset85" /><feComposite
         result="comp1"
         operator="in"
         in="flood"
         in2="offset"
         id="feComposite86" /><feComposite
         result="comp2"
         operator="over"
         in="SourceGraphic"
         in2="comp1"
         id="feComposite87" /></filter><filter
       style="color-interpolation-filters:sRGB;"
       inkscape:label="Drop Shadow"
       id="filter89"
       x="-0.36427043"
       y="-0.16599866"
       width="1.7821214"
       height="1.3548707"><feFlood
         result="flood"
         in="SourceGraphic"
         flood-opacity="1.000000"
         flood-color="rgb(0,0,0)"
         id="feFlood87" /><feGaussianBlur
         result="blur"
         in="SourceGraphic"
         stdDeviation="0.800000"
         id="feGaussianBlur87" /><feOffset
         result="offset"
         in="blur"
         dx="0.300000"
         dy="0.300000"
         id="feOffset87" /><feComposite
         result="comp1"
         operator="in"
         in="flood"
         in2="offset"
         id="feComposite88" /><feComposite
         result="comp2"
         operator="over"
         in="SourceGraphic"
         in2="comp1"
         id="feComposite89" /></filter><filter
       style="color-interpolation-filters:sRGB;"
       inkscape:label="Drop Shadow"
       id="filter91"
       x="-0.12580551"
       y="-0.087021173"
       width="1.2703573"
       height="1.1806368"><feFlood
         result="flood"
         in="SourceGraphic"
         flood-opacity="1.000000"
         flood-color="rgb(0,0,0)"
         id="feFlood89" /><feGaussianBlur
         result="blur"
         in="SourceGraphic"
         stdDeviation="0.800000"
         id="feGaussianBlur89" /><feOffset
         result="offset"
         in="blur"
         dx="0.300000"
         dy="0.300000"
         id="feOffset89" /><feComposite
         result="comp1"
         operator="in"
         in="flood"
         in2="offset"
         id="feComposite90" /><feComposite
         result="comp2"
         operator="over"
         in="SourceGraphic"
         in2="comp1"
         id="feComposite91" /></filter><filter
       style="color-interpolation-filters:sRGB;"
       inkscape:label="Drop Shadow"
       id="filter93"
       x="-3.54522"
       y="-1.7336802"
       width="8.6014785"
       height="4.7172679"><feFlood
         result="flood"
         in="SourceGraphic"
         flood-opacity="1.000000"
         flood-color="rgb(0,0,0)"
         id="feFlood91" /><feGaussianBlur
         result="blur"
         in="SourceGraphic"
         stdDeviation="0.800000"
         id="feGaussianBlur91" /><feOffset
         result="offset"
         in="blur"
         dx="0.300000"
         dy="0.300000"
         id="feOffset91" /><feComposite
         result="comp1"
         operator="in"
         in="flood"
         in2="offset"
         id="feComposite92" /><feComposite
         result="comp2"
         operator="over"
         in="SourceGraphic"
         in2="comp1"
         id="feComposite93" /></filter><filter
       style="color-interpolation-filters:sRGB;"
       inkscape:label="Drop Shadow"
       id="filter95"
       x="-0.18708876"
       y="-0.15363171"
       width="1.4020514"
       height="1.3269767"><feFlood
         result="flood"
         in="SourceGraphic"
         flood-opacity="1.000000"
         flood-color="rgb(0,0,0)"
         id="feFlood93" /><feGaussianBlur
         result="blur"
         in="SourceGraphic"
         stdDeviation="0.800000"
         id="feGaussianBlur93" /><feOffset
         result="offset"
         in="blur"
         dx="0.300000"
         dy="0.300000"
         id="feOffset93" /><feComposite
         result="comp1"
         operator="in"
         in="flood"
         in2="offset"
         id="feComposite94" /><feComposite
         result="comp2"
         operator="over"
         in="SourceGraphic"
         in2="comp1"
         id="feComposite95" /></filter><filter
       style="color-interpolation-filters:sRGB;"
       inkscape:label="Drop Shadow"
       id="filter97"
       x="-0.25695969"
       y="-0.14730211"
       width="1.5516092"
       height="1.3160591"><feFlood
         result="flood"
         in="SourceGraphic"
         flood-opacity="1.000000"
         flood-color="rgb(0,0,0)"
         id="feFlood95" /><feGaussianBlur
         result="blur"
         in="SourceGraphic"
         stdDeviation="0.800000"
         id="feGaussianBlur95" /><feOffset
         result="offset"
         in="blur"
         dx="0.300000"
         dy="0.300000"
         id="feOffset95" /><feComposite
         result="comp1"
         operator="in"
         in="flood"
         in2="offset"
         id="feComposite96" /><feComposite
         result="comp2"
         operator="over"
         in="SourceGraphic"
         in2="comp1"
         id="feComposite97" /></filter><filter
       style="color-interpolation-filters:sRGB;"
       inkscape:label="Drop Shadow"
       id="filter99"
       x="-0.11304054"
       y="-0.14359584"
       width="1.2428155"
       height="1.3082658"><feFlood
         result="flood"
         in="SourceGraphic"
         flood-opacity="1.000000"
         flood-color="rgb(0,0,0)"
         id="feFlood97" /><feGaussianBlur
         result="blur"
         in="SourceGraphic"
         stdDeviation="0.800000"
         id="feGaussianBlur97" /><feOffset
         result="offset"
         in="blur"
         dx="0.300000"
         dy="0.300000"
         id="feOffset97" /><feComposite
         result="comp1"
         operator="in"
         in="flood"
         in2="offset"
         id="feComposite98" /><feComposite
         result="comp2"
         operator="over"
         in="SourceGraphic"
         in2="comp1"
         id="feComposite99" /></filter><linearGradient
       inkscape:collect="always"
       xlink:href="#linearGradient150"
       id="linearGradient151"
       x1="102.86969"
       y1="58.495136"
       x2="102.86969"
       y2="43.036083"
       gradientUnits="userSpaceOnUse" /></defs><g
     inkscape:label="Layer 1"
     inkscape:groupmode="layer"
     id="layer1"><path
       id="path1"
       style="fill:url(#linearGradient151);fill-opacity:1;stroke:#000000;stroke-width:0.241;stroke-linecap:square;stroke-linejoin:miter;stroke-dasharray:none;stroke-dashoffset:0;stroke-opacity:1;paint-order:fill markers stroke;filter:url(#filter85)"
       d="M 87.688188 36.84943 L 83.180452 55.56095 L 81.309249 55.900981 L 81.053967 58.962809 L 94.151876 57.85745 L 94.151876 54.285059 L 87.092875 55.135653 L 91.60061 38.720634 L 87.688188 36.84943 z M 99.138135 38.738204 C 98.003094 38.763319 97.60853 39.528335 97.08658 40.166541 C 96.651017 41.456826 96.148773 42.754062 97.809534 43.823682 C 99.213763 43.558857 100.48342 43.196525 100.65846 42.037744 C 100.81119 40.725948 100.71251 39.554092 99.850753 38.8059 C 99.584294 38.754285 99.348327 38.733553 99.138135 38.738204 z M 112.56574 39.315946 L 109.291 48.84198 L 107.12266 46.503105 C 105.60946 47.428048 104.56797 48.55535 103.84792 49.820215 C 102.67261 51.362076 102.16448 53.070565 101.89146 54.837996 C 101.87756 56.057067 101.68586 57.276068 102.86969 58.495138 C 104.00322 59.215627 104.93662 58.934429 105.84677 58.538029 L 108.14275 56.453918 C 108.36586 58.069225 108.78503 59.454235 110.90693 58.835685 L 112.90577 55.56095 L 114.09639 56.156262 L 114.18166 61.982263 L 116.77582 63.981108 C 117.65334 64.667887 117.73087 64.074933 118.09408 63.938733 L 117.49877 52.584387 C 117.06373 51.399256 116.81506 50.107186 115.62757 49.352026 C 115.20231 49.530878 114.77694 49.647138 114.35168 50.372636 L 112.73575 52.329106 L 112.05518 51.903809 L 115.32991 43.015979 L 112.56574 39.315946 z M 97.213704 44.844291 C 96.409457 46.256304 95.753307 47.786491 95.513033 49.649683 C 95.131193 51.577069 95.172532 53.29271 95.470142 54.880371 C 95.801968 56.064457 96.313311 57.087406 97.766642 57.262138 L 100.83829 55.008012 L 100.83829 52.073824 L 99.765487 52.711511 C 98.877938 53.198225 98.712824 52.817864 98.957267 51.946183 L 100.57371 45.780151 L 97.213704 44.844291 z M 126.8119 46.333089 C 124.89991 47.043518 123.20961 47.975604 121.75122 49.139636 C 120.66665 50.310733 119.66471 51.543986 119.02943 53.052059 C 118.71775 54.41847 118.46701 55.798174 119.15707 57.387195 C 119.87115 58.364592 120.24452 59.931149 122.13415 58.87806 L 124.0901 57.387195 C 124.84898 58.831821 125.64901 60.111938 126.85427 59.771029 C 127.66651 58.81274 128.57947 58.005382 129.61844 57.387195 L 129.4908 54.497965 L 128.59784 55.34856 L 127.96015 54.795622 L 128.21543 53.604997 C 128.19889 52.526905 127.90548 51.669954 127.32194 51.045463 L 126.34423 51.045463 L 124.98307 52.286731 L 122.8571 55.433309 L 122.17652 53.987402 L 123.87771 52.15909 L 128.13016 49.441943 L 126.8119 46.333089 z M 137.66188 48.298344 L 134.42384 49.649683 C 133.24419 50.370139 132.2158 51.211852 131.31963 52.15909 C 130.4684 53.374041 130.13707 54.686544 130.19257 56.071513 C 130.36262 57.376564 131.37228 57.799942 132.66994 57.921012 L 131.70772 58.642415 C 130.53605 59.258935 130.24955 60.155236 130.14399 61.108415 C 130.23585 62.078024 130.83936 62.401775 132.00848 62.010685 C 133.28952 61.762295 134.84053 60.748715 136.45885 59.544686 C 138.21931 56.753532 137.72741 55.213537 134.89513 54.973905 C 133.9665 54.653156 134.37827 54.33244 134.71477 54.01169 L 137.90218 51.743612 C 138.0466 50.190942 138.33166 48.385444 137.66188 48.298344 z M 144.71468 48.971688 C 144.25212 48.967588 143.76143 49.061928 143.22692 49.309652 L 140.20746 51.743612 C 139.65715 52.565007 139.12291 53.402343 139.01684 54.667981 C 138.72651 56.742915 138.91714 58.240479 139.18685 59.643388 C 141.04939 61.956396 143.12206 62.168213 145.43815 59.945695 C 146.49726 59.545275 147.31182 58.736973 148.03231 57.772184 L 147.69176 59.218091 L 148.15995 62.293872 C 149.10744 63.781718 149.56271 63.054722 150.07353 62.577576 L 151.68945 59.473372 C 153.65326 60.340212 155.40986 60.378277 156.92014 59.430998 L 156.87776 57.815076 C 156.92516 57.328229 156.50435 57.309148 156.11192 57.262138 L 154.66601 56.92159 C 154.9253 56.122884 154.98363 55.266904 154.45362 54.242684 C 153.83811 53.53092 153.2977 53.567933 152.79532 53.987402 L 151.51943 54.880371 L 151.56181 54.200309 L 151.77472 52.37148 L 150.9665 52.329106 L 150.92412 51.743612 C 150.2104 50.664075 149.81608 51.340675 149.3082 51.393245 L 147.60701 54.157418 L 145.22576 57.176872 C 144.32303 57.699146 143.39179 57.966877 142.37632 57.474528 C 141.6506 56.686149 142.38432 56.429018 142.84399 56.071513 C 144.31526 55.848556 145.68193 55.259344 146.92643 54.242684 C 147.34817 53.42408 147.74135 52.588392 147.60701 51.436137 C 147.34195 50.093688 146.60935 49.842074 146.03346 49.224902 C 145.61152 49.078633 145.17724 48.975788 144.71468 48.971688 z M 108.70396 50.042424 L 108.22285 51.455774 C 107.95654 52.247622 107.71679 53.039491 107.14023 53.83134 L 106.05761 55.184745 C 105.19015 55.509152 105.08219 55.07388 104.99979 54.613204 L 105.54653 53.621016 C 105.90805 52.995269 106.37854 52.369358 106.89993 51.743612 L 108.70396 50.042424 z M 143.96124 52.290348 C 144.23587 52.370408 144.22067 52.614399 143.84342 53.062911 L 142.80162 53.902653 C 142.69531 54.062631 142.58909 54.366862 142.48278 54.753247 L 142.16342 53.881466 C 142.12462 53.553644 142.39806 53.194207 142.6316 52.839152 C 142.87953 52.442985 143.40648 52.351798 143.96124 52.290348 z " /><path
       style="fill:#00f00d;fill-opacity:1;stroke:#000000;stroke-width:0.241;stroke-linecap:square;stroke-linejoin:miter;stroke-dasharray:none;stroke-dashoffset:0;stroke-opacity:1;paint-order:fill markers stroke;filter:url(#filter85)"
       d="m 87.688144,95.057989 3.91237,1.871134 -4.50773,16.414957 7.059276,-0.85052 v 3.57217 l -13.097938,1.10567 0.255156,-3.06186 1.871133,-0.3402 z"
       id="path150" /></g></svg>
