<?xml version="1.0" encoding="UTF-8" standalone="no"?>
<!-- Created with Inkscape (http://www.inkscape.org/) -->

<svg
   width="101.30807mm"
   height="32.976055mm"
   viewBox="0 0 101.30807 32.976055"
   version="1.1"
   id="svg1"
   xml:space="preserve"
   inkscape:version="1.3.2 (091e20e, 2023-11-25, custom)"
   sodipodi:docname="logo.svg"
   xmlns:inkscape="http://www.inkscape.org/namespaces/inkscape"
   xmlns:sodipodi="http://sodipodi.sourceforge.net/DTD/sodipodi-0.dtd"
   xmlns:xlink="http://www.w3.org/1999/xlink"
   xmlns="http://www.w3.org/2000/svg"
   xmlns:svg="http://www.w3.org/2000/svg"><sodipodi:namedview
     id="namedview1"
     pagecolor="#ffffff"
     bordercolor="#000000"
     borderopacity="0.25"
     inkscape:showpageshadow="2"
     inkscape:pageopacity="0.0"
     inkscape:pagecheckerboard="0"
     inkscape:deskcolor="#d1d1d1"
     inkscape:document-units="mm"
     inkscape:zoom="1.5554293"
     inkscape:cx="49.504018"
     inkscape:cy="137.26114"
     inkscape:window-width="2400"
     inkscape:window-height="1261"
     inkscape:window-x="2391"
     inkscape:window-y="141"
     inkscape:window-maximized="1"
     inkscape:current-layer="layer1" /><defs
     id="defs1"><linearGradient
       id="linearGradient150"
       inkscape:collect="always"><stop
         style="stop-color:#007e07;stop-opacity:1;"
         offset="0"
         id="stop150" /><stop
         style="stop-color:#46ff4f;stop-opacity:1;"
         offset="0.61648178"
         id="stop151" /></linearGradient><filter
       style="color-interpolation-filters:sRGB"
       inkscape:label="Drop Shadow"
       id="filter85"
       x="-0.02704669"
       y="-0.076225794"
       width="1.0579203"
       height="1.1614317"><feFlood
         result="flood"
         in="SourceGraphic"
         flood-opacity="1.000000"
         flood-color="rgb(0,0,0)"
         id="feFlood84" /><feGaussianBlur
         result="blur"
         in="SourceGraphic"
         stdDeviation="0.800000"
         id="feGaussianBlur84" /><feOffset
         result="offset"
         in="blur"
         dx="0.300000"
         dy="0.300000"
         id="feOffset84" /><feComposite
         result="comp1"
         operator="in"
         in="flood"
         in2="offset"
         id="feComposite84" /><feComposite
         result="comp2"
         operator="over"
         in="SourceGraphic"
         in2="comp1"
         id="feComposite85" /></filter><filter
       style="color-interpolation-filters:sRGB"
       inkscape:label="Drop Shadow"
       id="filter87"
       x="-0.50278735"
       y="-0.40094623"
       width="2.0794058"
       height="1.8624372"><feFlood
         result="flood"
         in="SourceGraphic"
         flood-opacity="1.000000"
         flood-color="rgb(0,0,0)"
         id="feFlood85" /><feGaussianBlur
         result="blur"
         in="SourceGraphic"
         stdDeviation="0.800000"
         id="feGaussianBlur85" /><feOffset
         result="offset"
         in="blur"
         dx="0.300000"
         dy="0.300000"
         id="feOffset85" /><feComposite
         result="comp1"
         operator="in"
         in="flood"
         in2="offset"
         id="feComposite86" /><feComposite
         result="comp2"
         operator="over"
         in="SourceGraphic"
         in2="comp1"
         id="feComposite87" /></filter><filter
       style="color-interpolation-filters:sRGB"
       inkscape:label="Drop Shadow"
       id="filter89"
       x="-0.36427042"
       y="-0.16599865"
       width="1.7821214"
       height="1.3548707"><feFlood
         result="flood"
         in="SourceGraphic"
         flood-opacity="1.000000"
         flood-color="rgb(0,0,0)"
         id="feFlood87" /><feGaussianBlur
         result="blur"
         in="SourceGraphic"
         stdDeviation="0.800000"
         id="feGaussianBlur87" /><feOffset
         result="offset"
         in="blur"
         dx="0.300000"
         dy="0.300000"
         id="feOffset87" /><feComposite
         result="comp1"
         operator="in"
         in="flood"
         in2="offset"
         id="feComposite88" /><feComposite
         result="comp2"
         operator="over"
         in="SourceGraphic"
         in2="comp1"
         id="feComposite89" /></filter><filter
       style="color-interpolation-filters:sRGB"
       inkscape:label="Drop Shadow"
       id="filter91"
       x="-0.12580551"
       y="-0.087021172"
       width="1.2703573"
       height="1.1806368"><feFlood
         result="flood"
         in="SourceGraphic"
         flood-opacity="1.000000"
         flood-color="rgb(0,0,0)"
         id="feFlood89" /><feGaussianBlur
         result="blur"
         in="SourceGraphic"
         stdDeviation="0.800000"
         id="feGaussianBlur89" /><feOffset
         result="offset"
         in="blur"
         dx="0.300000"
         dy="0.300000"
         id="feOffset89" /><feComposite
         result="comp1"
         operator="in"
         in="flood"
         in2="offset"
         id="feComposite90" /><feComposite
         result="comp2"
         operator="over"
         in="SourceGraphic"
         in2="comp1"
         id="feComposite91" /></filter><filter
       style="color-interpolation-filters:sRGB"
       inkscape:label="Drop Shadow"
       id="filter93"
       x="-3.5452199"
       y="-1.7336802"
       width="8.6014786"
       height="4.717268"><feFlood
         result="flood"
         in="SourceGraphic"
         flood-opacity="1.000000"
         flood-color="rgb(0,0,0)"
         id="feFlood91" /><feGaussianBlur
         result="blur"
         in="SourceGraphic"
         stdDeviation="0.800000"
         id="feGaussianBlur91" /><feOffset
         result="offset"
         in="blur"
         dx="0.300000"
         dy="0.300000"
         id="feOffset91" /><feComposite
         result="comp1"
         operator="in"
         in="flood"
         in2="offset"
         id="feComposite92" /><feComposite
         result="comp2"
         operator="over"
         in="SourceGraphic"
         in2="comp1"
         id="feComposite93" /></filter><filter
       style="color-interpolation-filters:sRGB"
       inkscape:label="Drop Shadow"
       id="filter95"
       x="-0.18708876"
       y="-0.15363172"
       width="1.4020514"
       height="1.3269767"><feFlood
         result="flood"
         in="SourceGraphic"
         flood-opacity="1.000000"
         flood-color="rgb(0,0,0)"
         id="feFlood93" /><feGaussianBlur
         result="blur"
         in="SourceGraphic"
         stdDeviation="0.800000"
         id="feGaussianBlur93" /><feOffset
         result="offset"
         in="blur"
         dx="0.300000"
         dy="0.300000"
         id="feOffset93" /><feComposite
         result="comp1"
         operator="in"
         in="flood"
         in2="offset"
         id="feComposite94" /><feComposite
         result="comp2"
         operator="over"
         in="SourceGraphic"
         in2="comp1"
         id="feComposite95" /></filter><filter
       style="color-interpolation-filters:sRGB"
       inkscape:label="Drop Shadow"
       id="filter97"
       x="-0.25695968"
       y="-0.14730211"
       width="1.5516092"
       height="1.3160591"><feFlood
         result="flood"
         in="SourceGraphic"
         flood-opacity="1.000000"
         flood-color="rgb(0,0,0)"
         id="feFlood95" /><feGaussianBlur
         result="blur"
         in="SourceGraphic"
         stdDeviation="0.800000"
         id="feGaussianBlur95" /><feOffset
         result="offset"
         in="blur"
         dx="0.300000"
         dy="0.300000"
         id="feOffset95" /><feComposite
         result="comp1"
         operator="in"
         in="flood"
         in2="offset"
         id="feComposite96" /><feComposite
         result="comp2"
         operator="over"
         in="SourceGraphic"
         in2="comp1"
         id="feComposite97" /></filter><filter
       style="color-interpolation-filters:sRGB"
       inkscape:label="Drop Shadow"
       id="filter99"
       x="-0.11304054"
       y="-0.14359584"
       width="1.2428155"
       height="1.3082658"><feFlood
         result="flood"
         in="SourceGraphic"
         flood-opacity="1.000000"
         flood-color="rgb(0,0,0)"
         id="feFlood97" /><feGaussianBlur
         result="blur"
         in="SourceGraphic"
         stdDeviation="0.800000"
         id="feGaussianBlur97" /><feOffset
         result="offset"
         in="blur"
         dx="0.300000"
         dy="0.300000"
         id="feOffset97" /><feComposite
         result="comp1"
         operator="in"
         in="flood"
         in2="offset"
         id="feComposite98" /><feComposite
         result="comp2"
         operator="over"
         in="SourceGraphic"
         in2="comp1"
         id="feComposite99" /></filter><linearGradient
       inkscape:collect="always"
       xlink:href="#linearGradient150"
       id="linearGradient151"
       x1="102.86969"
       y1="58.495136"
       x2="102.86969"
       y2="43.036083"
       gradientUnits="userSpaceOnUse" /></defs><g
     inkscape:label="Layer 1"
     inkscape:groupmode="layer"
     id="layer1"
     transform="translate(-69.168771,-34.250762)"><path
       id="path1"
       style="fill:url(#linearGradient151);fill-opacity:1;stroke:#000000;stroke-width:0.241;stroke-linecap:square;stroke-linejoin:miter;stroke-dasharray:none;stroke-dashoffset:0;stroke-opacity:1;paint-order:fill markers stroke;filter:url(#filter85)"
       d="m 87.688188,36.84943 -4.507736,18.71152 -1.871203,0.340031 -0.255282,3.061828 13.097909,-1.105359 v -3.572391 l -7.059001,0.850594 4.507735,-16.415019 z m 11.449947,1.888774 c -1.135041,0.02511 -1.529605,0.790131 -2.051555,1.428337 -0.435563,1.290285 -0.937807,2.587521 0.722954,3.657141 1.404229,-0.264825 2.673886,-0.627157 2.848926,-1.785938 0.15273,-1.311796 0.054,-2.483652 -0.807707,-3.231844 -0.266459,-0.05161 -0.502426,-0.07235 -0.712618,-0.0677 z m 13.427605,0.577742 -3.27474,9.526034 -2.16834,-2.338875 c -1.5132,0.924943 -2.55469,2.052245 -3.27474,3.31711 -1.17531,1.541861 -1.68344,3.25035 -1.95646,5.017781 -0.0139,1.219071 -0.2056,2.438072 0.97823,3.657142 1.13353,0.720489 2.06693,0.439291 2.97708,0.04289 l 2.29598,-2.084111 c 0.22311,1.615307 0.64228,3.000317 2.76418,2.381767 l 1.99884,-3.274735 1.19062,0.595312 0.0853,5.826001 2.59416,1.998845 c 0.87752,0.686779 0.95505,0.09383 1.31826,-0.04237 L 117.4988,52.584391 c -0.43504,-1.185131 -0.68371,-2.477201 -1.8712,-3.232361 -0.42526,0.178852 -0.85063,0.295112 -1.27589,1.02061 l -1.61593,1.95647 -0.68057,-0.425297 3.27473,-8.88783 z m -15.352036,5.528345 c -0.804247,1.412013 -1.460397,2.9422 -1.700671,4.805392 -0.38184,1.927386 -0.340501,3.643027 -0.04289,5.230688 0.331826,1.184086 0.843169,2.207035 2.2965,2.381767 l 3.071647,-2.254126 v -2.934188 l -1.072802,0.637687 c -0.887549,0.486714 -1.052663,0.106353 -0.80822,-0.765328 l 1.616442,-6.166032 z m 29.598196,1.488798 c -1.91199,0.710429 -3.60229,1.642515 -5.06068,2.806547 -1.08457,1.171097 -2.08651,2.40435 -2.72179,3.912423 -0.31168,1.366411 -0.56242,2.746115 0.12764,4.335136 0.71408,0.977397 1.08745,2.543954 2.97708,1.490865 l 1.95595,-1.490865 c 0.75888,1.444626 1.55891,2.724743 2.76417,2.383834 0.81224,-0.958289 1.7252,-1.765647 2.76417,-2.383834 l -0.12764,-2.88923 -0.89296,0.850595 -0.63769,-0.552938 0.25528,-1.190625 c -0.0165,-1.078092 -0.30995,-1.935043 -0.89349,-2.559534 h -0.97771 l -1.36116,1.241268 -2.12597,3.146578 -0.68058,-1.445907 1.70119,-1.828312 4.25245,-2.717147 z m 10.84998,1.965255 -3.23804,1.351339 c -1.17965,0.720456 -2.20804,1.562169 -3.10421,2.509407 -0.85123,1.214951 -1.18256,2.527454 -1.12706,3.912423 0.17005,1.305051 1.17971,1.728429 2.47737,1.849499 l -0.96222,0.721403 c -1.17167,0.61652 -1.45817,1.512821 -1.56373,2.466 0.0919,0.969609 0.69537,1.29336 1.86449,0.90227 1.28104,-0.24839 2.83205,-1.26197 4.45037,-2.465999 1.76046,-2.791154 1.26856,-4.331149 -1.56372,-4.570781 -0.92863,-0.320749 -0.51686,-0.641465 -0.18036,-0.962215 l 3.18741,-2.268078 c 0.14442,-1.55267 0.42948,-3.358168 -0.2403,-3.445268 z m 7.0528,0.673344 c -0.46256,-0.0041 -0.95325,0.09024 -1.48776,0.337964 l -3.01946,2.43396 c -0.55031,0.821395 -1.08455,1.658731 -1.19062,2.924369 -0.29033,2.074934 -0.0997,3.572498 0.17001,4.975407 1.86254,2.313008 3.93521,2.524825 6.2513,0.302307 1.05911,-0.40042 1.87367,-1.208722 2.59416,-2.173511 l -0.34055,1.445907 0.46819,3.075781 c 0.94749,1.487846 1.40276,0.76085 1.91358,0.283704 l 1.61592,-3.104204 c 1.96381,0.86684 3.72041,0.904905 5.23069,-0.04237 l -0.0424,-1.615922 c 0.0474,-0.486847 -0.37341,-0.505928 -0.76584,-0.552938 l -1.44591,-0.340548 c 0.25929,-0.798706 0.31762,-1.654686 -0.21239,-2.678906 -0.61551,-0.711764 -1.15592,-0.674751 -1.6583,-0.255282 l -1.27589,0.892969 0.0424,-0.680062 0.21291,-1.828829 -0.80822,-0.04237 -0.0424,-0.585494 c -0.71372,-1.079537 -1.10804,-0.402937 -1.61592,-0.350367 l -1.70119,2.764173 -2.38125,3.019454 c -0.90273,0.522274 -1.83397,0.790005 -2.84944,0.297656 -0.72572,-0.788379 0.008,-1.04551 0.46767,-1.403015 1.47127,-0.222957 2.83794,-0.812169 4.08244,-1.828829 0.42174,-0.818604 0.81492,-1.654292 0.68058,-2.806547 -0.26506,-1.342449 -0.99766,-1.594063 -1.57355,-2.211235 -0.42194,-0.146269 -0.85622,-0.249114 -1.31878,-0.253214 z m -36.01072,1.070736 -0.48111,1.41335 c -0.26631,0.791848 -0.50606,1.583717 -1.08262,2.375566 l -1.08262,1.353405 c -0.86746,0.324407 -0.97542,-0.110865 -1.05782,-0.571541 l 0.54674,-0.992188 c 0.36152,-0.625747 0.83201,-1.251658 1.3534,-1.877404 z m 35.25728,2.247924 c 0.27463,0.08006 0.25943,0.324051 -0.11782,0.772563 l -1.0418,0.839742 c -0.10631,0.159978 -0.21253,0.464209 -0.31884,0.850594 l -0.31936,-0.871781 c -0.0388,-0.327822 0.23464,-0.687259 0.46818,-1.042314 0.24793,-0.396167 0.77488,-0.487354 1.32964,-0.548804 z" /></g></svg>
